<?xml version="1.0" encoding="utf-8" ?>
<svg xmlns="http://www.w3.org/2000/svg" xmlns:xlink="http://www.w3.org/1999/xlink" width="511" height="512">
	<path fill="#121212" d="M371.281 215.176L372.916 215.825C374.269 216.362 375.821 216.267 377.254 216.27L385.393 216.277C395.4 216.297 401.403 223.936 397.022 233.342L395.826 235.441C388.617 246.384 378.372 242.858 367.742 245.335C367.092 245.487 366.147 245.836 365.504 245.703L365.281 245.625C363.347 241 377.792 238.853 379.898 235.841C380.556 234.9 381.207 231.016 379.455 230.764C378.051 230.563 376.455 230.684 375.031 230.669L366.722 230.475C364.063 230.356 361.752 230.17 359.508 228.582C360.242 227.162 365.113 224.961 367.312 221.007L369.695 216.643C370.293 215.647 370.227 215.578 371.281 215.176Z"/>
	<defs>
		<linearGradient id="gradient_0" gradientUnits="userSpaceOnUse" x1="420.28" y1="109.254" x2="159.064" y2="284.07001">
			<stop offset="0" stop-color="#411917"/>
			<stop offset="1" stop-color="#DE271E"/>
		</linearGradient>
	</defs>
	<path fill="url(#gradient_0)" d="M304.786 88.3012L304.566 88.164C303.659 87.3978 303.409 85.314 303.156 84.1902C295.831 51.5581 314.803 40.6967 343.321 41.2651L346.424 41.5756C364.069 44.201 379.605 50.4627 390.559 64.8711C397.684 74.2431 395.638 78.2525 383.944 79.5345L354.422 82.4407L350.245 102.625C348.378 113.527 351.469 116.305 357.348 125.648C358.237 127.061 363.859 133.786 361.773 135.195C357.893 137.818 349.99 136.995 345.58 136.099C337.159 134.388 330.01 129.269 323.747 123.611L323.699 123.476L316.779 117.732C315.974 118.361 315.819 119.313 315.344 120.203L312.418 125.313C310.894 127.962 308.962 130.432 307.293 132.998C299.067 145.649 300.466 158.365 300.547 172.66C300.595 181.091 300.195 189.715 300.687 198.12C306.9 199.234 313.823 198.731 320.131 198.739L360.44 198.749C362.249 198.753 364.115 198.619 365.87 199.131C372.075 200.941 377.037 212.012 371.586 215.03L371.281 215.176C370.227 215.578 370.293 215.647 369.695 216.643L367.312 221.007C365.113 224.961 360.242 227.162 359.508 228.582L359.22 228.301C357.452 226.684 344.873 227.308 342.069 227.391C339.626 226.573 332.645 227.189 330.015 227.445C331.529 231.986 332.691 237.006 334.718 241.252L284.456 262.889C283.235 263.373 281.911 264.117 280.625 264.352C281.998 258.459 284.178 250.401 279.818 245.281L279.83 245.695C279.915 247.637 280.492 249.527 280.56 251.508C280.699 255.573 280.089 259.526 279.874 263.559C279.706 266.707 276.441 271.408 275.751 275.368L276.221 275.81L275.535 276.125C272.584 284.406 271.611 293.612 269.621 302.177L266.243 315.5C265.763 317.434 265.051 319.527 264.883 321.511C263.207 325.194 262.11 329.112 260.989 332.992L257.52 345.926C257.166 347.472 256.496 349.182 256.556 350.771C255.606 351.808 253.744 353.375 253.475 354.777C251.016 357.543 253.091 376.276 243.513 382.453C234.218 388.448 224.007 382.449 219.182 373.861C216.396 368.902 217.079 355.538 218.692 350.25C220.998 347.656 220.028 341.139 219.96 337.816C221.921 334.384 222.404 329.436 223.303 325.545L226.082 313C226.791 309.606 227.936 305.064 227.36 301.604C227.48 300.211 228.299 297.749 227.787 296.509L228.124 296.447C229.089 294.722 229.389 292.5 229.748 290.57L233.246 274.567C234.811 272.07 235.06 269.17 235.134 266.305L235.233 265.868C235.882 261.804 229.951 255.991 226.374 255.352L196.187 232.568C194.574 231.276 192.238 229.924 190.96 228.322L191.128 228.115C190.269 226.737 188.962 225.697 187.76 224.627C179.687 217.44 167.491 206.728 156.029 208.537C145.793 203.639 133.875 200.681 127.112 190.669L126.875 190.315C119.99 180.162 121.224 166.065 127.692 156.008C133.508 146.965 143.747 140.273 152.454 134.274L168.904 123.139C200.193 103.67 270.188 73.6975 305.364 96.5217L304.786 88.3012ZM279.818 245.281C284.178 250.401 281.998 258.459 280.625 264.352C281.911 264.117 283.235 263.373 284.456 262.889L334.718 241.252C332.691 237.006 331.529 231.986 330.015 227.391C326.449 227.033 322.76 227.223 319.179 227.224L300.356 227.228C294.148 227.216 287.341 227.671 281.926 224.076L281.525 223.813C277.329 220.984 273.236 215.128 272.44 210.06L270.43 158.72C251.151 159.748 230.618 165.651 212.879 172.764C209.888 173.963 204.974 175.516 202.731 177.894L202.414 178.283C209.84 185.158 217.917 191.324 225.75 197.728L253.028 220.584C262.151 228.147 272.786 235.567 279.818 245.281ZM305.485 88.5115C306.963 94.4199 309.144 99.4161 312.306 104.624C313.308 106.275 314.859 108.048 315.626 109.771C317.897 112.665 320.219 115.431 322.779 118.08C323.18 118.494 325.718 120.703 325.773 121.046C331.331 125.496 337.236 128.803 344.356 129.75C340.645 120.239 339.238 115.076 339.239 104.56L339.57 91.8807C339.743 89.1707 340.212 86.5158 340.288 83.7989L315.095 86.9971C312.156 87.3918 308.152 87.3036 305.485 88.5115Z"/>
	<path fill="#121212" d="M330.015 227.517C332.645 227.189 339.626 226.573 342.069 227.608L342.147 227.948C342.871 231.006 344.573 233.947 346.037 236.705L357.413 260.073C358.761 262.867 360.063 265.793 361.752 268.396C379.22 257.805 404.77 258.97 423.711 263.619C477.335 276.78 514.215 334.554 500.63 388.702C493.015 419.052 476.41 441.447 449.39 456.89L448.572 457.327C445.009 459.175 441.549 461.084 437.823 462.607C373.219 489.022 299.828 443.897 293.277 373.932C289.803 336.82 308.886 291.332 343.125 273.564L345.327 272.442L337.859 258.688L256.556 350.771C256.496 349.182 257.166 347.472 257.52 345.926L260.989 332.992C262.11 329.112 263.207 325.194 264.883 321.511C265.051 319.527 265.763 317.434 266.243 315.5L269.621 302.177C271.611 293.612 272.584 284.406 275.535 276.125L276.221 275.81L275.751 275.368C276.441 271.408 279.706 266.707 279.874 263.559C280.089 259.526 280.699 255.573 280.56 251.508C280.492 249.527 279.915 247.637 279.83 245.695L279.818 245.281C284.178 250.401 281.998 258.459 280.625 264.352C281.911 264.117 283.235 263.373 284.456 262.889L334.718 241.252C332.691 237.006 331.529 231.986 330.015 227.517ZM392.118 295.651C386.37 296.027 381.293 297.192 375.866 299.049C378.636 303.412 380.925 308.063 383.246 312.676L403.928 353.78C405.634 357.091 407.391 360.308 408.652 363.819C409.976 367.509 404.622 373.152 401.551 374.145C390.236 377.804 387.212 364.093 383.422 356.738L358.82 307.569C355.745 310.089 352.498 312.495 349.614 315.231C326.061 337.571 322.346 373.29 338.666 400.643C360.068 433.538 403.1 444.9 436.529 423.044C489.027 388.721 469.253 307.378 410.75 296.751C404.568 295.628 398.39 295.404 392.118 295.651ZM276.221 275.81L275.535 276.125C272.584 284.406 271.611 293.612 269.621 302.177L266.243 315.5C265.763 317.434 265.051 319.527 264.883 321.511L315.793 262.56C302.686 267.58 290.166 273.272 276.221 275.81Z"/>
	<path fill="#121212" d="M156.029 208.537C167.491 206.728 179.687 217.44 187.76 224.627C188.962 225.697 190.269 226.737 191.128 228.115L190.96 228.322C192.238 229.924 194.574 231.276 196.187 232.568L226.374 255.352C229.951 255.991 235.882 261.804 235.233 265.868L235.134 266.305C235.06 269.17 234.811 272.07 233.246 274.567L229.748 290.57C229.389 292.5 229.089 294.722 228.124 296.447L227.787 296.509C228.299 297.749 227.48 300.211 227.36 301.604C227.936 305.064 226.791 309.606 226.082 313L223.303 325.545C222.404 329.436 221.921 334.384 219.889 337.816C220.028 341.139 220.998 347.656 218.692 350.25C217.079 355.538 216.396 368.902 219.182 373.861C224.007 382.449 234.218 388.448 243.513 382.453C253.091 376.276 251.016 357.543 253.475 354.777L255.028 355.106C274.24 358.107 272.139 386.324 251.191 388.665L250.718 390.75C247.889 400.258 238.112 403.636 229.195 400.491C222.824 398.244 220.203 392.757 217.391 387.122L208.32 410.647C196.404 435.654 174.044 454.909 147.975 464.137C51.4051 498.319 -30.6003 385.904 28.7634 303.5C52.0338 271.198 93.6841 254.982 132.75 261.995C138.601 263.045 144.498 264.232 149.875 266.877L163.603 233.089C153.939 228.46 147.449 217.324 156.029 208.537ZM111.444 295.902C106.531 296.315 101.575 296.892 96.7856 298.097C63.7312 306.41 41.307 338.118 44.3739 372.1C48.4473 417.232 98.3359 447.755 140.27 429.002C157.419 421.756 169.259 409.279 176.196 392.089L179.927 380.409L124.042 368.817C123.649 370.11 123.265 371.157 122.521 372.306L122.308 372.642C119.757 375.675 108.575 374.075 105.418 370.511C99.9307 364.317 103.746 357.973 106.514 351.597L116.638 329.373C121.33 318.867 125.579 308.086 130.842 297.85C124.411 295.812 118.172 295.404 111.444 295.902ZM176.242 350.975L179.262 350.79L179.148 350.566C178.355 348.952 177.908 347.192 177.324 345.495L174.784 339.15C169.141 326.256 160.056 313.765 147.145 307.478L128.384 348.397C127.913 349.612 127.895 350.745 127.004 351.774L176.242 350.975ZM215.483 349.849L215.776 350.385L218.692 350.25C220.998 347.656 220.028 341.139 219.889 337.816L172.587 248.134L161.358 272.952C184.528 284.151 203.245 310.227 211.38 333.811C213.121 338.856 215.136 344.501 215.483 349.849ZM226.374 255.352L196.187 232.568C194.574 231.276 192.238 229.924 190.96 228.322L181.463 232.007C183.458 235.658 184.941 239.775 186.689 243.568L196.566 263.142C197.401 264.674 198.254 267.1 199.404 268.333L217.732 260.081C220.728 258.632 223.772 257.481 226.374 255.352ZM233.246 274.567C234.811 272.07 235.06 269.17 235.134 266.305C231.773 267.24 228.712 268.664 225.534 270.076L213.62 275.325C210.76 276.567 207.793 277.374 204.903 278.504C206.171 280.827 207.234 283.439 208.948 285.457L233.246 274.567ZM227.787 296.509L218.187 300.543C221.295 301.324 224.285 301.001 227.36 301.604C227.48 300.211 228.299 297.749 227.787 296.509Z"/>
</svg>
